<svg width="50" height="50" viewBox="0 0 50 50" fill="none" xmlns="http://www.w3.org/2000/svg">
<path d="M40.7206 37.4043C41.1609 37.8446 41.4083 38.4418 41.4083 39.0645C41.4083 39.6872 41.1609 40.2843 40.7206 40.7246C40.2803 41.1649 39.6831 41.4123 39.0605 41.4123C38.4378 41.4123 37.8406 41.1649 37.4003 40.7246L24.9999 28.3204L12.5956 40.7207C12.1553 41.161 11.5581 41.4084 10.9355 41.4084C10.3128 41.4084 9.71561 41.161 9.27531 40.7207C8.83501 40.2804 8.58765 39.6833 8.58765 39.0606C8.58765 38.4379 8.83501 37.8407 9.27531 37.4004L21.6796 25L9.27921 12.5957C8.83891 12.1554 8.59155 11.5583 8.59155 10.9356C8.59155 10.3129 8.83891 9.71573 9.27921 9.27543C9.71951 8.83513 10.3167 8.58777 10.9394 8.58777C11.562 8.58777 12.1592 8.83513 12.5995 9.27543L24.9999 21.6797L37.4042 9.27347C37.8445 8.83317 38.4417 8.58582 39.0644 8.58582C39.687 8.58582 40.2842 8.83317 40.7245 9.27347C41.1648 9.71378 41.4122 10.311 41.4122 10.9336C41.4122 11.5563 41.1648 12.1535 40.7245 12.5938L28.3202 25L40.7206 37.4043Z" fill="black"/>
</svg>
