<svg width="50" height="50" viewBox="0 0 50 50" fill="none" xmlns="http://www.w3.org/2000/svg">
<path d="M36.7708 13.2292C35.0246 11.4672 32.905 10.12 30.5683 9.28708C28.2317 8.45411 25.7378 8.15666 23.2708 8.41668C15.625 9.18751 9.33334 15.3958 8.47917 23.0417C7.33334 33.1458 15.1458 41.6667 25 41.6667C28.1461 41.6667 31.2275 40.774 33.8864 39.0924C36.5454 37.4107 38.6725 35.0092 40.0208 32.1667C40.6875 30.7708 39.6875 29.1667 38.1458 29.1667C37.375 29.1667 36.6458 29.5833 36.3125 30.2708C35.1029 32.873 33.0341 34.9791 30.454 36.235C27.8739 37.4909 24.94 37.8199 22.1458 37.1667C17.5208 36.1458 13.7917 32.375 12.8125 27.75C12.4009 25.9214 12.4057 24.0236 12.8265 22.1971C13.2472 20.3706 14.0733 18.662 15.2434 17.1978C16.4136 15.7335 17.898 14.5511 19.5868 13.738C21.2756 12.9248 23.1256 12.5017 25 12.5C28.4583 12.5 31.5417 13.9375 33.7917 16.2083L30.6458 19.3542C29.3333 20.6667 30.25 22.9167 32.1042 22.9167H39.5833C40.7292 22.9167 41.6667 21.9792 41.6667 20.8333V13.3542C41.6667 11.5 39.4167 10.5625 38.1042 11.875L36.7708 13.2292Z" fill="black"/>
</svg>
